<svg id="svg" width="400" height="400" viewBox="138.71534729 35.75846481 1.1884918199999959 0.5174636899999996" xmlns="http://www.w3.org/2000/svg">
  <polygon id="saitama" fill="#33aa33" stroke="black" stroke-width="0.4%" points="139.84909058,35.79490662 139.84793091,35.79515076 139.83782959,35.79449844 139.83587646,35.79387665 139.82789612,35.79134369 139.82546997,35.79621124 139.82351685,35.80015945 139.82044983,35.80633926 139.8193512,35.80853653 139.80726624,35.80491638 139.8036499,35.80382919 139.79289246,35.80273056 139.78070068,35.80737305 139.77668762,35.81007767 139.77644348,35.8102417 139.77026367,35.8143959 139.76832581,35.81350327 139.75868225,35.80904007 139.75871277,35.80809784 139.75906372,35.79867935 139.75968933,35.79291153 139.76020813,35.78807831 139.74946594,35.78357697 139.74858093,35.78380585 139.74714661,35.78417969 139.73742676,35.7867012 139.73580933,35.78701019 139.7313385,35.78786469 139.72050476,35.78993225 139.70709229,35.79401016 139.70109558,35.79583359 139.69796753,35.79656219 139.69525146,35.79719543 139.69511414,35.79722977 139.69296265,35.79772949 139.6910553,35.79817581 139.68595886,35.79717636 139.68016052,35.79604721 139.66976929,35.79715347 139.66021729,35.79668427 139.65924072,35.79663467 139.64341736,35.79171753 139.64199829,35.79033661 139.63522339,35.78373718 139.62838745,35.77494431 139.62501526,35.76376343 139.62496948,35.76359558 139.62431335,35.76382828 139.61515808,35.76701736 139.6149292,35.76709747 139.60809326,35.77035141 139.59742737,35.77542496 139.5973053,35.77548218 139.59603882,35.77500534 139.58711243,35.77165604 139.57875061,35.76496124 139.56600952,35.75846481 139.55932617,35.75918961 139.55648804,35.7594986 139.55079651,35.76011276 139.54707336,35.76394653 139.54600525,35.76504898 139.54533386,35.76573563 139.53923035,35.77202988 139.54185486,35.77432251 139.54690552,35.77871704 139.54237366,35.78656387 139.53684998,35.79613113 139.5292511,35.78868484 139.51885986,35.78546906 139.50970459,35.77968597 139.5017395,35.77706909 139.49945068,35.77631378 139.49278259,35.77704239 139.4855957,35.77783203 139.47691345,35.77161407 139.47068787,35.77087784 139.46543884,35.77025604 139.46270752,35.7687912 139.45678711,35.76563263 139.45617676,35.76530457 139.45411682,35.76544952 139.44848633,35.76585007 139.44802856,35.76588058 139.44213867,35.7663002 139.41490173,35.76490402 139.40438843,35.76528168 139.3986969,35.76456833 139.39250183,35.76379776 139.38473511,35.77104568 139.38415527,35.77146912 139.37231445,35.78016281 139.36576843,35.7886734 139.365448,35.78872681 139.35578918,35.79027939 139.34376526,35.79125214 139.33779907,35.79255676 139.32618713,35.79509735 139.32574463,35.79617691 139.32185364,35.80566406 139.31845093,35.82127762 139.31832886,35.82181168 139.30981445,35.82100677 139.30734253,35.82077026 139.30703735,35.82222748 139.30525208,35.83087921 139.29518127,35.83391953 139.2850647,35.83610535 139.27455139,35.83636093 139.26808167,35.83446121 139.26420593,35.83332443 139.2525177,35.83361053 139.24996948,35.83367538 139.23956299,35.83610535 139.22947693,35.83642197 139.21865845,35.84191132 139.21742249,35.8418541 139.207901,35.84140396 139.20193481,35.83849335 139.19868469,35.83690262 139.18682861,35.84029388 139.1774292,35.84506226 139.16459656,35.85028839 139.16088867,35.85287476 139.15600586,35.8562851 139.14648438,35.8600769 139.13613892,35.86128616 139.12496948,35.86172104 139.11468506,35.86156082 139.10261536,35.86471939 139.10128784,35.86510468 139.09272766,35.8676033 139.08248901,35.87215805 139.07528687,35.86973572 139.07232666,35.8687439 139.06242371,35.87184525 139.06089783,35.87245941 139.05310059,35.87558365 139.04515076,35.88278961 139.03646851,35.88803864 139.02662659,35.89413834 139.0135498,35.89385986 138.99996948,35.88115311 138.98930359,35.87895584 138.98736572,35.87855911 138.97729492,35.87951279 138.96786499,35.87438202 138.95829773,35.87086105 138.95646667,35.87018967 138.95567322,35.86932373 138.94911194,35.8621254 138.94697571,35.85183716 138.93348694,35.84658051 138.92306519,35.84807587 138.91261292,35.84798431 138.90216064,35.84344482 138.89193726,35.83996964 138.8820343,35.84415054 138.87120056,35.85177994 138.86581421,35.85557938 138.85675049,35.86207962 138.84463501,35.86183548 138.83473206,35.8597641 138.82365417,35.86205673 138.81442261,35.86501312 138.80960083,35.86655426 138.79804993,35.8701973 138.79493713,35.87979889 138.79124451,35.89065933 138.78309631,35.89647293 138.77041626,35.8962059 138.76087952,35.8993988 138.74232483,35.90265274 138.73168945,35.90605927 138.73251343,35.90833664 138.73554993,35.91667557 138.7419281,35.92771149 138.73928833,35.93811417 138.73356628,35.94646072 138.7272644,35.95500183 138.71905518,35.96127701 138.71534729,35.97068787 138.71635437,35.97459793 138.72033691,35.9899559 138.73031616,35.99249649 138.73092651,35.99264908 138.73271179,35.99452209 138.73434448,35.99623489 138.74205017,36.00433731 138.74996948,36.01144791 138.75366211,36.02144623 138.75816345,36.03132248 138.76858521,36.0344162 138.77928162,36.0340271 138.78872681,36.03003311 138.79878235,36.02776337 138.80899048,36.03089142 138.82096863,36.03243637 138.82948303,36.03708649 138.83235168,36.03865051 138.83499146,36.04277802 138.8377533,36.04709625 138.84620667,36.05327225 138.84822083,36.05851364 138.85032654,36.06402969 138.85432434,36.06484604 138.86019897,36.06604767 138.86619568,36.07264709 138.86721802,36.07377625 138.86901855,36.07452393 138.88047791,36.07931137 138.89315796,36.08333588 138.90437317,36.08764267 138.91444397,36.08773041 138.92503357,36.08622742 138.93418884,36.08492661 138.93647766,36.08617401 138.94102478,36.08866119 138.94454956,36.09057999 138.95347595,36.0973587 138.95698547,36.10116196 138.96086121,36.10535049 138.96304321,36.11068726 138.96791077,36.12257767 138.97567749,36.12256622 138.98298645,36.12255859 138.99996948,36.12253571 139.01397705,36.12898254 139.02661133,36.13065338 139.03491211,36.12446976 139.04551697,36.1255722 139.05218506,36.14963531 139.06681824,36.15679169 139.06053162,36.17279053 139.06512451,36.18212128 139.06794739,36.19494629 139.07627869,36.20179367 139.08683777,36.21625519 139.09233093,36.22557449 139.09300232,36.22650909 139.10169983,36.23851395 139.11076355,36.25814438 139.1111145,36.25839996 139.12113953,36.26574707 139.13032532,36.2759285 139.13543701,36.27579117 139.14047241,36.27566147 139.14442444,36.27555847 139.15174866,36.27536392 139.16563416,36.2736702 139.16931152,36.27207947 139.17611694,36.26913452 139.18061829,36.26718903 139.18695068,36.26444626 139.19670105,36.260952 139.19813538,36.26056671 139.20524597,36.25865173 139.21447754,36.25616074 139.21496582,36.25603104 139.21627808,36.25540161 139.22215271,36.25257874 139.22377014,36.25180435 139.25158691,36.23843765 139.25335693,36.23879242 139.25875854,36.23987198 139.26823425,36.24176407 139.26924133,36.24196625 139.27186584,36.24248886 139.27444458,36.24300766 139.28192139,36.24449921 139.28453064,36.24377823 139.29379272,36.24121475 139.30947876,36.23448944 139.3175354,36.23389435 139.3313446,36.23287582 139.3364563,36.23587036 139.34048462,36.23823166 139.34259033,36.23879623 139.34532166,36.23952866 139.35237122,36.24141693 139.36392212,36.24342728 139.3707428,36.2421875 139.37496948,36.24141693 139.37667847,36.24020767 139.3848877,36.23442078 139.39160156,36.22967911 139.401474,36.2237854 139.40866089,36.22032166 139.41548157,36.21702957 139.42001343,36.21484756 139.43754578,36.20109558 139.43777466,36.20091629 139.44564819,36.19489288 139.44732666,36.19361115 139.45692444,36.18852997 139.45822144,36.18821335 139.46688843,36.18612289 139.48028564,36.1866684 139.4901886,36.18807983 139.49171448,36.18829727 139.49411011,36.18864059 139.49627686,36.18874359 139.50236511,36.18903732 139.51359558,36.1895752 139.52563477,36.18886566 139.53395081,36.18959427 139.53733826,36.18989182 139.54888916,36.19387054 139.55461121,36.19595337 139.55982971,36.19784927 139.57601929,36.20069122 139.58569336,36.2061348 139.59432983,36.20614243 139.5958252,36.20614624 139.60560608,36.20112991 139.6083374,36.19831467 139.61297607,36.19351578 139.6214447,36.18683624 139.6219635,36.18643188 139.62294006,36.18687439 139.62527466,36.18793869 139.63246155,36.19119644 139.63537598,36.19252014 139.64685059,36.19356918 139.64706421,36.19389343 139.64877319,36.19655228 139.65280151,36.20279312 139.65420532,36.20493698 139.6602478,36.21419525 139.66247559,36.21761703 139.6673584,36.21492767 139.67247009,36.21211243 139.69297791,36.2049942 139.70529175,36.20071793 139.69743347,36.18903351 139.69682312,36.18645859 139.6946106,36.17702484 139.69651794,36.16408157 139.69795227,36.15947342 139.69880676,36.15675735 139.70033264,36.15184784 139.70071411,36.1511879 139.70617676,36.14188385 139.71287537,36.13335037 139.71369934,36.1313591 139.71487427,36.12850952 139.71757507,36.12198257 139.72067261,36.11911774 139.7255249,36.1146431 139.73060608,36.10087585 139.73397827,36.09481049 139.7403717,36.08330536 139.76022339,36.07928467 139.76266479,36.08107376 139.78001404,36.09381866 139.78082275,36.08893585 139.78268433,36.07772064 139.78822327,36.06450653 139.78865051,36.06385803 139.79115295,36.05997467 139.79368591,36.05606079 139.80332947,36.04670715 139.8049469,36.04533768 139.81137085,36.03990936 139.81259155,36.03888321 139.81611633,36.03590012 139.81620789,36.03567505 139.81770325,36.03165436 139.81797791,36.03091812 139.81951904,36.0267868 139.81993103,36.02568436 139.81977844,36.0210228 139.81929016,36.00533295 139.81864929,35.99305725 139.82537842,35.98442841 139.8290863,35.97748566 139.8321991,35.97164154 139.832901,35.9703331 139.83345032,35.96928787 139.83421326,35.9678688 139.83526611,35.96589661 139.83650208,35.96357727 139.83688354,35.96285629 139.83874512,35.95937347 139.84210205,35.95056152 139.84358215,35.94665146 139.84454346,35.94522858 139.8458252,35.94332886 139.84910583,35.93847275 139.84942627,35.93800735 139.85192871,35.93631363 139.85604858,35.93352509 139.85848999,35.93186951 139.85968018,35.93053818 139.87510681,35.91324234 139.87815857,35.90981674 139.87982178,35.90730286 139.88363647,35.90151978 139.88420105,35.90067673 139.8874054,35.89686966 139.89170837,35.89175034 139.89677429,35.88199997 139.90002441,35.87097549 139.90223694,35.86471558 139.90383911,35.86016846 139.89891052,35.84939194 139.89810181,35.84761429 139.89251709,35.83733368 139.89378357,35.82832718 139.8941803,35.82546234 139.89555359,35.81572723 139.89482117,35.81324387 139.89242554,35.80519867 139.88496399,35.80055237 139.87496948,35.79431915 139.87217712,35.79379654 139.87034607,35.7934494 139.86738586,35.79289627 139.86280823,35.79203796 139.84909058,35.79490662"></polygon>
</svg>