<svg id="svg3" width="400" height="400" xmlns="http://www.w3.org/2000/svg" viewBox="0 0 1000 1000">
  <polygon id="saitama3" fill="#33aa33" stroke="black" stroke-width="0.4%" points="954,405 953,405 944,405 943,406 936,408 934,404 932,400 930,395 929,393 919,396 916,397 907,398 896,394 893,392 893,392 888,388 886,389 878,393 878,394 878,402 879,406 879,410 870,414 869,414 868,414 860,412 859,411 855,411 846,409 834,405 829,404 827,403 824,403 824,403 823,402 821,402 817,403 812,404 803,403 795,403 794,403 781,407 780,409 774,414 768,422 765,431 765,431 765,431 757,428 757,428 751,425 742,421 742,421 741,421 734,424 726,430 716,435 710,435 708,435 703,434 700,431 699,430 698,429 693,424 695,422 700,418 696,412 691,404 685,410 676,413 668,418 662,420 660,420 654,420 648,419 641,424 636,425 631,425 629,427 624,429 623,430 622,430 617,429 616,429 612,429 589,430 580,430 575,430 570,431 563,425 563,424 553,417 547,410 547,410 539,409 529,408 524,407 514,405 514,404 510,396 507,383 507,382 500,383 498,383 498,382 496,374 488,372 479,370 471,370 465,371 462,372 452,372 450,372 441,370 433,370 423,365 422,365 414,366 409,368 407,369 397,367 389,363 378,358 375,356 371,353 363,350 354,349 345,349 336,349 326,346 325,346 318,344 309,340 303,342 300,343 292,340 291,339 284,337 277,331 270,326 262,321 251,321 239,332 231,334 229,334 220,334 212,338 204,341 203,341 202,342 197,348 195,357 184,361 175,360 166,360 157,364 149,367 140,363 131,357 127,354 119,348 109,348 100,350 91,348 83,346 79,344 70,341 67,333 64,324 57,319 46,319 38,317 23,314 14,311 14,309 17,302 22,293 20,284 15,277 10,270 3,265 0,257 1,254 4,241 13,238 13,238 15,237 16,235 22,229 29,223 32,214 36,206 45,203 54,204 62,207 70,209 79,206 89,205 96,201 98,200 101,196 103,193 110,187 112,183 114,178 117,178 122,177 127,171 128,170 129,169 139,165 150,162 159,158 168,158 176,160 184,161 186,160 190,158 193,156 200,150 203,147 207,144 208,139 213,129 219,129 225,129 239,129 251,124 262,122 269,127 278,127 283,106 296,100 290,87 294,79 297,68 304,62 313,50 317,42 318,42 325,31 333,15 333,15 341,9 349,0 353,0 358,0 361,0 367,0 379,2 382,3 388,6 391,7 397,10 405,13 406,13 412,15 420,17 420,17 421,17 426,20 428,20 451,32 453,31 457,30 465,29 466,29 468,28 470,28 477,26 479,27 487,29 500,35 507,35 518,36 523,34 526,32 528,31 530,31 536,29 546,27 551,28 555,29 556,30 563,35 569,39 577,44 583,47 589,50 593,51 608,63 608,63 614,68 616,69 624,74 625,74 632,76 644,75 652,74 653,74 655,73 657,73 662,73 672,73 682,73 689,73 692,72 701,69 706,67 711,66 724,63 732,59 740,59 741,59 749,63 751,65 755,69 762,75 763,75 764,75 766,74 772,71 774,70 784,69 784,69 785,67 789,62 790,60 795,52 797,49 801,51 805,54 823,60 833,63 826,73 826,75 824,83 826,94 827,98 827,100 829,104 829,105 834,113 839,120 840,122 841,124 843,130 846,132 850,136 854,147 857,152 862,162 879,165 881,164 896,153 896,157 898,167 903,178 903,178 905,182 907,185 915,193 917,194 922,199 923,199 926,202 926,202 928,206 928,206 929,210 929,211 929,214 929,228 928,238 934,245 937,251 940,256 940,257 941,258 941,259 942,261 943,263 944,263 945,266 948,274 949,277 950,278 951,280 954,284 954,284 956,286 960,288 962,289 963,291 976,305 978,308 980,310 983,315 983,316 986,319 990,323 994,331 997,341 999,346 1000,350 996,359 995,360 990,369 992,377 992,379 993,387 992,389 990,396 984,400 976,405 973,406 972,406 969,406 965,407 954,405"></polygon>
</svg>